<svg width="24" height="24" viewBox="0 0 24 24" fill="none" xmlns="http://www.w3.org/2000/svg">
<path d="M4.25 3C3.01625 3 2 4.01625 2 5.25V17.75C2 19.536 3.46403 21 5.25 21H19.75C21.536 21 23 19.536 23 17.75V10.25C23 9.01625 21.9838 8 20.75 8H20V5.25C20 4.01625 18.9838 3 17.75 3H4.25ZM4.25 4.5H17.75C18.1732 4.5 18.5 4.82675 18.5 5.25V8.62695C18.4868 8.70747 18.4868 8.7896 18.5 8.87012V17.25C18.4986 17.3494 18.517 17.4481 18.554 17.5403C18.5911 17.6325 18.6461 17.7164 18.7159 17.7872C18.7857 17.858 18.8688 17.9142 18.9605 17.9526C19.0522 17.9909 19.1506 18.0107 19.25 18.0107C19.3494 18.0107 19.4478 17.9909 19.5395 17.9526C19.6312 17.9142 19.7143 17.858 19.7841 17.7872C19.8539 17.7164 19.9089 17.6325 19.946 17.5403C19.983 17.4481 20.0014 17.3494 20 17.25V9.5H20.75C21.1732 9.5 21.5 9.82675 21.5 10.25V17.75C21.5 18.725 20.725 19.5 19.75 19.5H5.25C4.27497 19.5 3.5 18.725 3.5 17.75V5.25C3.5 4.82675 3.82675 4.5 4.25 4.5ZM5.75 7.5C5.65062 7.49859 5.55194 7.51696 5.45972 7.55402C5.36749 7.59108 5.28355 7.6461 5.21277 7.71588C5.142 7.78566 5.08579 7.86882 5.04743 7.96051C5.00907 8.0522 4.98932 8.15061 4.98932 8.25C4.98932 8.34939 5.00907 8.4478 5.04743 8.53949C5.08579 8.63118 5.142 8.71434 5.21277 8.78412C5.28355 8.8539 5.36749 8.90892 5.45972 8.94598C5.55194 8.98304 5.65062 9.00141 5.75 9H16.25C16.3494 9.00141 16.4481 8.98304 16.5403 8.94598C16.6325 8.90892 16.7164 8.8539 16.7872 8.78412C16.858 8.71434 16.9142 8.63118 16.9526 8.53949C16.9909 8.4478 17.0107 8.34939 17.0107 8.25C17.0107 8.15061 16.9909 8.0522 16.9526 7.96051C16.9142 7.86882 16.858 7.78566 16.7872 7.71588C16.7164 7.6461 16.6325 7.59108 16.5403 7.55402C16.4481 7.51696 16.3494 7.49859 16.25 7.5H5.75ZM5.75 11.5C5.55109 11.5 5.36034 11.579 5.21969 11.7197C5.07904 11.8603 5.00002 12.0511 5 12.25V15.75C5.00002 15.9489 5.07904 16.1397 5.21969 16.2803C5.36034 16.421 5.55109 16.5 5.75 16.5H9.25C9.44891 16.5 9.63966 16.421 9.78031 16.2803C9.92096 16.1397 9.99998 15.9489 10 15.75V12.25C9.99998 12.0511 9.92096 11.8603 9.78031 11.7197C9.63966 11.579 9.44891 11.5 9.25 11.5H5.75ZM12.25 11.5C12.1506 11.4986 12.0519 11.517 11.9597 11.554C11.8675 11.5911 11.7836 11.6461 11.7128 11.7159C11.642 11.7857 11.5858 11.8688 11.5474 11.9605C11.5091 12.0522 11.4893 12.1506 11.4893 12.25C11.4893 12.3494 11.5091 12.4478 11.5474 12.5395C11.5858 12.6312 11.642 12.7143 11.7128 12.7841C11.7836 12.8539 11.8675 12.9089 11.9597 12.946C12.0519 12.983 12.1506 13.0014 12.25 13H16.25C16.3494 13.0014 16.4481 12.983 16.5403 12.946C16.6325 12.9089 16.7164 12.8539 16.7872 12.7841C16.858 12.7143 16.9142 12.6312 16.9526 12.5395C16.9909 12.4478 17.0107 12.3494 17.0107 12.25C17.0107 12.1506 16.9909 12.0522 16.9526 11.9605C16.9142 11.8688 16.858 11.7857 16.7872 11.7159C16.7164 11.6461 16.6325 11.5911 16.5403 11.554C16.4481 11.517 16.3494 11.4986 16.25 11.5H12.25ZM6.5 13H8.5V15H6.5V13ZM12.25 15C12.1506 14.9986 12.0519 15.017 11.9597 15.054C11.8675 15.0911 11.7836 15.1461 11.7128 15.2159C11.642 15.2857 11.5858 15.3688 11.5474 15.4605C11.5091 15.5522 11.4893 15.6506 11.4893 15.75C11.4893 15.8494 11.5091 15.9478 11.5474 16.0395C11.5858 16.1312 11.642 16.2143 11.7128 16.2841C11.7836 16.3539 11.8675 16.4089 11.9597 16.446C12.0519 16.483 12.1506 16.5014 12.25 16.5H16.25C16.3494 16.5014 16.4481 16.483 16.5403 16.446C16.6325 16.4089 16.7164 16.3539 16.7872 16.2841C16.858 16.2143 16.9142 16.1312 16.9526 16.0395C16.9909 15.9478 17.0107 15.8494 17.0107 15.75C17.0107 15.6506 16.9909 15.5522 16.9526 15.4605C16.9142 15.3688 16.858 15.2857 16.7872 15.2159C16.7164 15.1461 16.6325 15.0911 16.5403 15.054C16.4481 15.017 16.3494 14.9986 16.25 15H12.25Z" fill="#8C6FEE"/>
</svg>
