<svg width="18" height="20" viewBox="0 0 18 20" fill="none" xmlns="http://www.w3.org/2000/svg">
<path d="M8.97559 0.000362923C8.81566 0.00582418 8.66168 0.0622851 8.53613 0.161496L1.42969 5.76013C0.527739 6.47094 0 7.55712 0 8.70544V18.2504C0 18.9322 0.568203 19.5004 1.25 19.5004H6.25C6.9318 19.5004 7.5 18.9322 7.5 18.2504V13.2504C7.5 13.1028 7.60248 13.0004 7.75 13.0004H10.25C10.3975 13.0004 10.5 13.1028 10.5 13.2504V18.2504C10.5 18.9322 11.0682 19.5004 11.75 19.5004H16.75C17.4318 19.5004 18 18.9322 18 18.2504V8.70544C18 7.55712 17.4723 6.47094 16.5703 5.76013L9.46387 0.161496C9.32517 0.0519334 9.15225 -0.00513271 8.97559 0.000362923ZM9 1.70544L15.6426 6.93884C16.1846 7.36602 16.5 8.01577 16.5 8.70544V18.0004H12V13.2504C12 12.2929 11.2075 11.5004 10.25 11.5004H7.75C6.79252 11.5004 6 12.2929 6 13.2504V18.0004H1.5V8.70544C1.5 8.01577 1.81537 7.36602 2.35742 6.93884L9 1.70544Z" fill="#8C6FEE"/>
</svg>
