<svg width="24" height="25" viewBox="0 0 24 25" fill="none" xmlns="http://www.w3.org/2000/svg">
<path opacity="0.2" fill-rule="evenodd" clip-rule="evenodd" d="M12 19.5005C12.9193 19.5005 13.8295 19.3194 14.6788 18.9676C15.5281 18.6159 16.2997 18.1002 16.9497 17.4502C17.5998 16.8002 18.1154 16.0286 18.4672 15.1793C18.8189 14.33 19 13.4197 19 12.5005C19 11.5812 18.8189 10.671 18.4672 9.8217C18.1154 8.97242 17.5998 8.20075 16.9497 7.55074C16.2997 6.90073 15.5281 6.38511 14.6788 6.03333C13.8295 5.68155 12.9193 5.50049 12 5.50049C10.1435 5.50049 8.36301 6.23799 7.05025 7.55074C5.7375 8.8635 5 10.644 5 12.5005C5 14.357 5.7375 16.1375 7.05025 17.4502C8.36301 18.763 10.1435 19.5005 12 19.5005ZM12 22.5005C17.523 22.5005 22 18.0235 22 12.5005C22 6.97749 17.523 2.50049 12 2.50049C6.477 2.50049 2 6.97749 2 12.5005C2 18.0235 6.477 22.5005 12 22.5005Z" fill="#8C6FEE"/>
<path d="M2 12.5005C2 6.97749 6.477 2.50049 12 2.50049V5.50049C10.1435 5.50049 8.36301 6.23799 7.05025 7.55074C5.7375 8.8635 5 10.644 5 12.5005H2Z" fill="#8C6FEE"/>
</svg>
